<?xml version="1.0" standalone="no"?>
<!DOCTYPE svg PUBLIC "-//W3C//DTD SVG 1.1//EN" "http://www.w3.org/Graphics/SVG/1.1/DTD/svg11.dtd" >
<svg xmlns="http://www.w3.org/2000/svg">
<metadata>Generated by IcoMoon</metadata>
<defs>
<font id="icomoon" horiz-adv-x="1024">
<font-face units-per-em="1024" ascent="960" descent="-64" />
<missing-glyph horiz-adv-x="1024" />
<glyph unicode="&#x20;" d="" horiz-adv-x="512" />
<glyph unicode="&#xe600;" d="M90.605 527.24c-45.566-18.738-67.621-71.529-48.954-117.13l109.144-266.066c18.701-45.566 71.149-66.862 116.713-48.158l665.576 273.013c45.566 18.774 68.002 70.733 49.335 116.264l-109.179 266.066c-18.669 45.599-71.424 67.691-117.061 48.987l-665.576-272.979zM100.805 502.381l665.543 273.013c32.185 13.205 68.832-2.144 82.040-34.329l109.144-266.099c13.172-32.119-2.455-68.002-34.606-81.279l-665.576-272.979c-32.185-13.24-68.556 1.35-81.762 33.536l-109.144 266.066c-13.172 32.149 2.179 68.867 34.365 82.073zM163.482 471.026c-28.245-11.618-41.798-43.906-30.184-72.221l74.745-182.228c11.652-28.347 43.941-41.864 72.256-30.249l580.251 238.028c28.279 11.686 41.831 43.906 30.215 72.256l-74.78 182.262c-11.618 28.312-43.941 41.798-72.221 30.215l-580.286-238.061zM166.042 464.836l580.286 237.992c24.927 10.234 53.241-1.556 63.406-26.553l74.814-182.262c10.234-25.030-1.556-53.205-26.553-63.475l-580.251-237.992c-24.962-10.269-53.241 1.523-63.437 26.518l-74.78 182.298c-10.269 24.927 1.556 53.205 26.518 63.475v0zM223.052 427.499l72.567-176.902 20.951 8.609-31.181 76.023 72.909 29.939-7.329 17.839-72.909-29.903-26.725 65.17 77.58 31.807-7.329 17.875-98.529-40.45zM351.033 480.014l72.567-176.868 20.951 8.574-30.249 73.743 36.44 14.971 73.707-55.904 24.061 9.887-80.864 60.12c20.362 18.012 25.894 38.549 16.283 61.953-6.88 16.734-17.007 26.791-30.769 30.871-13.83 4.044-31.462 1.591-53.173-7.294l-48.954-20.053zM504.671 543.038l72.567-176.902 98.529 40.413-7.639 18.598-77.613-31.807-26.69 65.17 72.909 29.903-7.329 17.875-72.909-29.903-23.58 57.421 77.58 31.807-7.294 17.875-98.529-40.45zM642.717 599.633l72.567-176.868 98.564 40.379-7.639 18.633-78.375-32.149-26.725 65.17 73.743 30.249-7.329 17.839-73.707-30.249-23.612 57.421 78.375 32.149-7.329 17.839-98.529-40.413zM379.348 470.749l26.377 10.819c15.249 6.259 27.519 8.261 36.508 5.878 9.023-2.282 15.454-8.954 20.224-20.672 4.771-11.583 5.151-21.987 0.76-30.525-4.39-8.574-13.761-15.592-28.279-21.538l-27.935-11.443-27.655 67.484z" />
<glyph unicode="&#xe601;" d="M512 856.602c-225.516 0-408.602-183.085-408.602-408.602 0-225.549 183.085-408.602 408.602-408.602 225.549 0 408.602 183.053 408.602 408.602 0 225.516-183.053 408.602-408.602 408.602zM512 832.212c212.347 0 384.212-171.863 384.212-384.212s-171.863-384.212-384.212-384.212-384.212 171.863-384.212 384.212 171.863 384.212 384.212 384.212zM512 772.744c-179.029 0-323.991-145.713-323.991-324.744 0-179.002 144.958-323.991 323.991-323.991 179.002 0 323.991 144.958 323.991 323.991s-144.99 324.744-323.991 324.744zM512 766.647c175.731 0 317.862-142.915 317.862-318.647s-142.131-317.862-317.862-317.862-317.892 142.131-317.892 317.862 142.162 318.647 317.892 318.647zM531.832 680.493c-4.055-0.503-6.883-3.048-6.883-9.147 0-22.882-17.696-122.454-80.024-134.933l-12.981-1.509v-170.765c0 0 36.018-50.322 115.917-50.322 79.802 0 95.3-6.1 121.954 42.683 26.56 48.782 63.648 159.135 32.78 174.568-29.106 14.553-82.6 16.534-121.198 15.998 3.332 32.122 13.138 71.756-3.080 99.854-9.179 15.871-34.385 35.109-46.485 33.568zM309.994 534.907v-219.576h48.782c13.481 0 24.389 10.94 24.389 24.421v170.732c0 13.452-10.907 24.389-24.389 24.389h-48.782z" />
<glyph unicode="&#xe602;" d="M494.336 856.602c-5.911-17.791-11.001-44.978-15.715-78.577-16.847-1.634-33.129-4.777-49.126-8.831-16.061 30.111-30.52 54.031-42.243 68.772l-32.406-11.818c0.596-18.763 4.557-46.267 11.786-79.552-15.116-7.23-29.483-15.213-43.215-24.548-25.397 22.787-46.835 40.263-62.862 50.101l-26.528-22.599c7.009-17.413 20.086-40.955 38.316-69.745-11.66-11.851-21.625-24.861-31.431-38.316-31.809 12.823-58.115 21.688-76.628 25.553l-17.696-29.483c12.573-13.986 33.852-32.155 60.911-53.055-6.822-14.994-13.107-31.053-17.696-47.146-34.259 1.256-61.824 0.691-80.558-1.981l-5.846-33.347c16.658-8.896 42.968-19.015 75.621-29.483-0.629-8.203-1.981-16.156-1.981-24.548 0-8.36 1.351-16.376 1.981-24.548-32.659-10.434-58.964-20.62-75.621-29.483l5.911-33.411c18.701-2.703 46.297-3.237 80.558-1.981 4.557-16.093 10.875-32.155 17.696-47.146-27.063-20.869-48.312-39.037-60.911-53.055l17.696-29.483c18.513 3.834 44.791 12.699 76.628 25.553 9.775-13.452 19.772-26.465 31.431-38.316-18.231-28.791-31.305-52.302-38.316-69.745l26.465-22.535c16.061 9.836 37.497 27.313 62.862 50.101 13.735-9.304 28.099-17.318 43.215-24.548-7.197-33.285-11.19-60.788-11.786-79.552l32.406-11.786c11.724 14.742 26.214 38.628 42.243 68.772 16.028-4.024 32.249-7.197 49.126-8.831 4.683-33.568 9.806-60.852 15.715-78.577h34.385c5.911 17.729 11.975 45.011 16.689 78.577 16.879 1.665 33.096 4.777 49.126 8.831 16.028-30.111 30.52-54.060 42.243-68.772l32.373 11.786c-0.567 18.794-4.557 46.297-11.786 79.552 15.087 7.23 29.483 15.213 43.215 24.548 25.365-22.787 46.835-40.263 62.862-50.101l26.528 22.599c-7.009 17.444-20.086 40.955-38.316 69.745 11.66 11.818 21.655 24.861 31.431 38.316 31.777-12.823 58.083-21.688 76.628-25.553l17.696 29.483c-12.573 13.986-33.821 32.155-60.911 53.055 6.852 14.994 13.138 31.053 17.696 47.146 34.259-1.256 61.824-0.691 80.558 1.981l5.846 33.347c-16.627 8.896-42.935 18.983-75.621 29.483 0.629 8.203 1.981 16.188 1.981 24.548 0 8.392-1.351 16.376-1.981 24.548 32.69 10.466 58.932 20.555 75.621 29.483l-5.911 33.411c-18.732 2.671-46.297 3.237-80.558 1.981-4.557 16.093-10.875 32.155-17.696 47.146 27.063 20.869 48.312 39.070 60.911 53.055l-17.696 29.483c-18.513-3.834-44.821-12.699-76.628-25.553-9.775 13.481-19.772 26.465-31.431 38.316 18.231 28.791 31.305 52.331 38.316 69.745l-26.465 22.503c-16.061-9.836-37.497-27.345-62.862-50.101-13.767 9.304-28.131 17.318-43.215 24.548 7.23 33.285 11.222 60.788 11.786 79.552l-32.406 11.786c-11.724-14.742-26.214-38.628-42.243-68.772-16.028 4.055-32.216 7.197-49.126 8.831-4.65 33.6-9.775 60.788-15.715 78.577h-35.329zM512 728.9c146.435 0 266.911-112.337 279.923-255.374h-155.207c-11.818 58.273-62.987 102.151-124.749 102.151-10.434 0-20.743-1.603-30.456-3.929l-77.603 135.561c33.442 13.986 69.62 21.593 108.091 21.593zM358.775 682.757l76.628-132.606c-30.989-23.323-51.075-60.411-51.075-102.151s20.086-78.859 51.075-102.151l-76.628-132.606c-76.757 50.165-127.704 136.222-127.704 234.757s50.949 184.594 127.704 234.757zM512 499.075c28.162 0 51.075-22.882 51.075-51.075 0-28.225-22.914-51.075-51.075-51.075-28.194 0-51.075 22.85-51.075 51.075s22.882 51.075 51.075 51.075zM636.749 422.447h155.207c-13.014-143.042-133.486-255.374-279.923-255.374-38.472 0-74.649 7.605-108.059 21.625l77.603 135.561c9.713-2.358 20.022-3.929 30.456-3.929 61.73-0.032 112.899 43.878 124.718 102.12z" />
<glyph unicode="&#xe603;" d="M512 856.602c-37.751 0-69.716-17.406-94.293-42.236-3.834-2.358-7.253-5.249-10.804-7.858l0.983-2.947 34.378-55.005-55.988 40.27c-23.323-23.889-37.443-53.306-40.27-82.507-0.157-1.572 0.065-3.121 0-4.913h-20.627v-55.005h23.575c0.283-2.578 0.668-5.123 0.983-7.858-2.17-1.384-3.975-2.9-5.891-4.913-18.354-19.549-15.747-63.465-15.715-63.844 1.068-18.072 16.534-49.080 39.288-56.967 8.14-45.701 23.903-70.074 33.396-80.54v-54.021c-11.095-5.595-35.705-16.854-82.507-36.341-16.408-6.852-32.225-13.481-48.127-19.645-59.53-23.102-111.124-42.777-131.615-74.649-21.845-34.134-17.735-165.444-16.697-191.532l0.983-16.697h76.614v73.666h624.687v-73.666h76.614l0.983 16.697c1.038 26.056 5.21 157.4-16.697 191.532-20.429 31.87-72.022 51.546-131.615 74.649-15.871 6.162-32.703 12.823-49.111 19.645-46.77 19.518-70.46 30.748-81.525 36.341v54.021c9.492 10.466 25.225 34.842 33.396 80.54 22.787 7.889 38.188 38.926 39.288 56.967 0.094 1.823 2.61 44.419-15.715 63.844-1.853 1.981-3.756 3.494-5.891 4.913 0.346 2.766 0.73 5.28 0.983 7.858h17.678v55.005h-14.735c-0.065 1.792 0.126 3.307 0 4.913-3.018 30.929-19.315 61.856-45.184 86.437l-27.501-19.645-33.396-24.555 20.627 34.378 17.678 28.483c-1.162 0.724-2.797 1.241-3.929 1.964-24.673 24.987-56.324 43.215-94.293 43.215zM383.328 646.409h29.466l5.891-11.786h187.603l5.891 11.786h28.483c-0.724-6.223-1.209-11.771-1.964-17.678l-3.929-23.575 21.609 3.929c3.426-5.69 6.744-23.086 5.891-37.323-0.567-9.147-11.386-24.446-16.697-26.52l-17.678 4.913-2.947-19.645c-7.448-58.022-29.466-77.596-29.466-77.596l-6.875-4.913 0.983-89.381 7.858-4.913c0.849-0.567 4.965-2.639 15.715-7.858-16.689-13.326-56.599-41.253-101.166-41.253-40.672 0-85.325 23.212-109.026 37.323 16.627 7.827 22.568 11.126 23.575 11.786l7.858 4.913 0.983 80.54v8.839l-5.891 4.913c-0.221 0.189-22.968 19.51-30.449 77.596l-1.964 19.645-18.662-4.913c-5.186 1.319-16.132 17.060-16.697 26.52-0.881 14.207 2.436 31.605 5.891 37.323l20.627-3.929-2.947 23.575c-0.754 5.659-1.176 11.299-1.964 17.678zM362.701 323.26v-176.799h-118.849v129.652c12.259 5.028 25.169 9.641 38.305 14.735 16.156 6.285 33.404 12.669 50.092 19.645 11.503 4.808 21.46 8.872 30.449 12.769zM661.299 323.26c9.021-3.898 18.882-7.959 30.449-12.769 16.627-6.914 34.001-13.389 50.092-19.645 13.17-5.123 26.017-9.706 38.305-14.735v-129.652h-118.849v176.799zM243.854 93.419v-37.323h118.849v37.323h-118.849zM661.299 93.419v-37.323h118.849v37.323h-118.849z" />
<glyph unicode="&#xe604;" d="M270.735 856.602c-43.688 0-80.369-28.633-93.601-68.111h-73.737v-45.385h68.079v-45.385h-68.079v-45.416h68.079v-45.385h-68.079v-45.416h68.079v-45.385h-68.079v-45.385h68.079v-45.416h-68.079v-45.385h68.079v-45.385h-68.079v-45.385h68.079v-45.449h-68.079v-45.416h68.079v-45.355h-68.079v-45.416h73.737c9.994-29.607 32.78-53.275 62.392-63.113v712.162c0 18.575 12.447 31.934 31.21 31.934h390.719c18.669 0 31.777-13.266 31.934-31.934v-81.596l68.049 68.111v13.481c0 54.785-45.228 100.044-99.983 100.044h-390.719zM779.162 674.994c-24.485 0.251-48.717-9.021-67.356-27.657l-67.389-67.389 180.823-180.853 67.356 67.389c37.34 37.309 37.34 96.746 0 134.082l-45.355 45.385c-18.669 18.638-43.564 28.791-68.079 29.042v0zM625.276 560.774l-340.365-340.459v-153.225c0-16.281 10.245-27.69 26.246-27.69h154.579l340.365 340.523-180.823 180.853zM761.436 289.085l-68.049-68.111v-82.254c0-18.669-13.266-30.863-31.934-31.243h-79.395l-70.217-68.079h149.611c54.754 0 99.983 44.536 99.983 99.322v150.366z" />
<glyph unicode="&#xe605;" d="M649.039 838.906c-70.123 0-128.018-51.546-138.924-118.745-1.098-6.631-2.547-14.176-2.547-22.724 0-9.932 1.823-18.983 3.803-27.785l-238.717-238.717c-8.767 1.949-17.82 3.803-27.785 3.803-8.582 0-16.061-1.446-22.756-2.514-67.103-11.001-118.715-68.833-118.715-138.924 0-11.537 7.951-21.308 18.953-24.012 11.565-3.143 23.606 1.414 29.042 11.348v1.256c10.151 19.111 29.701 31.586 53.055 31.586 14.458 0 27.219-5.153 37.906-13.892 0.439-0.409 0.849-0.881 1.256-1.256l7.576-7.576c8.739-10.593 13.892-23.416 13.892-37.906 0-23.323-12.447-42.84-31.556-53.055-10.341-5.344-15.59-17.852-12.636-29.042 2.766-10.593 12.605-18.983 24.012-18.983 65.848 0 120.82 45.011 136.408 106.142 2.734 10.655 5.060 22.724 5.060 35.36 0 7.102-1.477 13.64-2.547 20.211l243.779 245.034c6.978-1.162 13.863-2.514 21.5-2.514 12.51 0 24.643 2.293 35.36 5.060 61.164 15.558 106.11 70.532 106.11 136.408 0 11.628-8.236 21.151-18.983 24.012-11.001 2.703-23.731-2.766-29.042-12.636-10.151-19.048-29.701-31.556-53.055-31.556-14.428 0-27.313 5.249-37.906 13.892l-7.576 7.576c-0.377 0.439-0.913 0.849-1.256 1.256-8.674 10.655-13.892 23.448-13.892 37.906 0 23.323 12.447 42.904 31.586 53.055 10.215 5.408 15.62 17.664 12.605 29.042-2.797 10.53-12.605 18.891-24.012 18.891v0zM601.044 780.823c-6.348-13.233-12.605-27.345-12.605-42.968 0-25.208 9.052-48.215 24.012-65.66h1.227v-1.256l8.831-8.831h1.288v-1.256c17.474-14.994 40.483-24.012 65.692-24.012 16.028 0 30.708 5.911 44.192 12.636-13.452-23.291-32.53-42.464-59.373-49.251-8.486-2.203-17.035-3.803-25.271-3.803-7.701 0-14.803 0.661-22.756 2.514l-11.348 2.514-274.077-274.047 2.547-11.378c1.886-7.827 2.547-15.055 2.547-22.756 0-8.236-1.603-16.689-3.803-25.24-6.852-26.843-25.991-45.921-49.251-59.373 6.695 13.481 12.636 28.162 12.636 44.192 0 25.271-10.089 48.12-25.271 65.692v1.227l-8.831 8.831h-1.256c-17.57 15.149-40.419 25.303-65.692 25.303-15.62 0-29.733-6.255-42.935-12.636 14.866 25.585 36.459 46.802 66.947 51.799 6.191 0.975 11.565 1.227 16.408 1.227 9.304 0 19.205-2.203 29.042-5.028l11.348-2.514 7.576 7.543 262.729 262.729-2.514 12.605c-2.892 9.745-5.060 18.387-5.060 27.785 0 4.777 0.251 10.309 1.256 16.408 4.965 30.551 26.15 52.113 51.766 67.011v0zM829.64 576.206c-14.585-34.605-45.042-61.32-82.098-70.72-9.587-2.451-19.895-3.803-30.3-3.803-9.679 0-18.826 1.634-27.785 3.803l-63.177-63.145c37.622-8.392 66.947-41.928 66.947-82.098 0-46.548-38.093-84.613-84.613-84.613-40.136 0-73.674 28.038-82.098 65.66l-88.415-88.415c1.603-2.547-5.123-54.785-7.576-64.405-4.494-17.632-12.791-33.129-24.012-46.737l13.892-13.892c13.266-13.045 34.854-13.075 47.997 0l50.509 51.799c17.223-8.582 35.927-15.715 55.571-18.983v-69.462c0-18.575 15.494-34.071 34.102-34.102h34.102c18.575 0 32.844 15.526 32.844 34.102v78.294c16.973 6.004 33.38 15.026 47.964 25.303l54.345-55.633c13.138-13.075 34.795-13.075 47.997 0l22.724 24.012c13.233 13.107 13.358 34.731 0 47.997l-59.373 59.373c7.291 14.803 12.919 31.305 16.438 47.997h80.808c18.638 0 34.041 14.176 34.102 32.844v34.102c-0.094 18.452-15.462 34.102-34.102 34.102h-84.613c-5.028 16.156-11.598 31.243-20.211 45.481l55.571 55.571c13.266 13.014 13.266 34.825 0 47.997l-7.543 7.576z" />
<glyph unicode="&#xe606;" d="M378.606 800.623c-151.811 0-275.21-123.743-275.21-275.586s123.398-275.21 275.21-275.21c151.874 0 275.586 123.366 275.586 275.21s-123.712 275.586-275.586 275.586zM378.606 755.269c127.326 0 230.265-102.905 230.265-230.232s-102.905-229.884-230.265-229.884-229.884 102.56-229.884 229.884c0 127.326 102.56 230.232 229.884 230.232zM296.794 672.731v-219.606h-28.349v-54.187h28.349v-21.249h74.020v21.249h26.182v54.187h-26.182v20.901h38.942c10.562 0 19.801 1.13 28.349 2.828 8.517 1.729 16.47 4.055 23.731 7.073 7.262 3.048 13.831 6.631 19.832 11.001 5.971 4.367 11.628 9.052 16.627 14.176 8.203 8.328 14.395 18.763 18.794 31.178 4.338 12.416 6.726 25.585 6.726 39.32 0 17.035-3.143 31.586-9.21 43.91-6.068 12.352-14.774 22.347-25.868 29.766-10.027 6.726-20.934 11.786-33.285 14.866-12.352 3.111-27.251 4.589-44.287 4.589h-114.377zM659.16 634.511c5.813-11.254 10.94-23.008 15.213-35.077 17.255-1.759 34.385-5.092 51.011-10.624 123.335-41.081 190.22-174.913 149.141-298.249-32.122-96.462-121.889-161.145-223.506-161.145-25.271 0-50.509 3.991-74.744 12.037-44.632 14.899-82.947 41.993-111.232 78.264-12.227-2.703-24.453-4.494-37.213-5.659 33.096-49.030 80.745-85.838 137.792-104.854 27.657-9.21 56.482-13.798 85.367-13.798 116.296 0 218.978 74.147 255.754 184.531 46.99 141.123-29.607 294.101-170.765 341.12-24.926 8.297-50.76 12.605-76.815 13.452zM370.844 617.506h10.624c10.969 0 19.458-0.251 25.868-0.691 6.38-0.472 13.17-1.917 20.179-4.965 5.562-2.261 10.215-6.411 14.176-12.416 3.929-6.004 6.004-13.294 6.004-21.625 0-8.989-1.068-15.998-2.828-21.249-1.792-5.28-4.903-10.341-9.901-15.213-2.39-2.39-5.846-4.841-10.277-6.726-4.431-1.917-8.8-3.237-12.761-3.898-4.619-0.787-9.745-0.913-15.936-1.068-6.191-0.126-12.856-0.346-19.832-0.346h-5.312v88.196zM691.029 506.964c0.032-1.541 0-3.048 0-4.589 0-17.729-1.572-34.887-4.589-51.735 8.517-2.892 15.37-5.28 20.524-7.448 5.94-2.451 11.66-6.255 17.381-11.315 4.557-3.898 8.047-9.336 9.901-16.312 1.886-6.945 1.194-14.428-1.446-22.314-2.828-8.517-5.846-15.055-9.21-19.488-3.301-4.431-8.236-8.297-14.491-11.315-3.018-1.509-6.883-2.422-11.724-2.861-4.777-0.409-9.147-0.251-13.075 0.377-4.619 0.724-9.994 2.075-15.967 3.898-3.365 1.068-7.009 2.358-10.624 3.521-26.903-50.856-68.708-92.815-119.375-120.065l58.463-19.458 6.695 20.211 24.801-8.517 17.003 51.389-24.801 8.171 6.758 20.179 36.836-12.416c10.027-3.332 19.329-5.312 28.005-6.348 8.582-1.068 16.941-1.288 24.801-0.724 7.827 0.629 15.213 2.011 22.285 4.274 7.102 2.232 13.798 4.871 20.211 8.14 10.403 5.344 19.581 13.326 27.627 23.763 8.077 10.374 14.458 22.031 18.794 35.046 5.344 16.156 7.197 30.989 5.312 44.632s-7.073 25.615-15.213 36.115c-7.388 9.555-16.534 17.948-27.283 24.801-10.718 6.852-24.202 12.699-40.391 18.072l-37.213 12.319z" />
<glyph unicode="&#xe607;" d="M192.004 855.91c-48.529 0-88.604-40.075-88.604-88.604v-457.16c0-48.499 40.075-89.294 88.604-89.294h178.624c-16.156 19.927-28.162 43.156-34.731 68.772h-143.892c-11.944 0-20.555 8.612-20.555 20.524v457.16c0 11.944 8.582 20.555 20.555 20.555h640.028c11.944 0 20.524-8.612 20.524-20.555v-457.16c0-11.912-8.582-20.524-20.524-20.524h-144.614c-6.57-25.585-18.575-48.843-34.699-68.772h179.313c48.499 0 88.573 40.797 88.573 89.294v457.16c0 48.529-40.075 88.604-88.573 88.604h-640.028zM391.871 719.813c-8.674 0-15.59-6.914-15.59-15.59v-35.421c0-8.707 6.914-15.59 15.59-15.59h239.569c8.674 0 15.59 6.883 15.59 15.59v35.421c0 8.674-6.914 15.59-15.59 15.59h-239.569zM257.912 607.103c-9.271 0-17.035-7.765-17.035-17.035v-33.318c0-9.271 7.765-17.035 17.035-17.035h508.867c9.304 0 17.035 7.765 17.035 17.035v33.318c0 9.271-7.733 17.035-17.035 17.035h-508.867zM511.654 482.385c-81.407 0-147.412-66.006-147.412-147.412s66.006-147.412 147.412-147.412 147.442 66.006 147.442 147.412-66.037 147.412-147.442 147.412zM420.945 178.323v-138.202l90.71 45.355 90.71-45.355v138.202c-26.747-15.526-57.581-24.801-90.71-24.801s-63.993 9.271-90.71 24.801z" />
<glyph unicode="&#xe608;" d="M263.382 793.269c-88.288 0-159.982-72.48-159.982-160.771v-256.099c0-76.504 55.066-137.918 126.885-153.698v-94.577c-0.126-13.924 11.064-25.333 24.987-25.461 4.494-0.032 8.927 1.13 12.823 3.365l191.478 109.537h301.047c88.288 0 159.982 72.511 159.982 160.771v256.099c0 88.288-71.694 160.771-159.982 160.771h-497.239zM263.382 742.853h497.239c61.007 0 109.537-49.282 109.537-110.323v-256.099c0-61.007-48.529-110.353-109.537-110.353h-306.545c-4.399 0.065-8.739-1.006-12.605-3.173l-160.771-92.22v70.938c0.032 13.358-10.341 24.389-23.633 25.208-57.926 3.488-103.251 50.793-103.251 109.568v256.099c0 61.038 48.529 110.353 109.568 110.353zM514.766 679.803c-39.635 0-77.321-10.121-112.68-29.954l25.991-51.988c30.456 15.558 57.393 23.633 81.186 23.633 13.64 0 24.673-3.269 32.313-8.674 7.605-5.408 11.033-12.605 11.033-22.85 0-9.179-2.578-17.696-7.858-25.208-5.344-7.42-16.438-17.288-33.129-29.169-17.288-12.699-28.917-24.202-35.454-35.454-6.506-11.254-9.46-24.955-9.46-40.169v-17.35h63.050v14.176c0 9.523 1.446 17.035 5.53 22.85 4.024 5.846 13.892 14.742 29.169 26.023 22.159 15.841 36.963 29.859 44.915 42.557 7.889 12.636 12.605 27.47 12.605 44.915 0 26.182-9.932 47.366-29.169 63.050-19.329 15.684-45.385 23.606-78.044 23.606zM500.558 401.608c-13.64 0-23.575-3.426-30.741-10.245-7.134-6.852-11.033-16.595-11.033-29.924 0-12.823 3.772-22.882 11.033-29.954 7.291-7.073 17.413-11.064 30.741-11.064 13.014 0 23.448 3.834 30.741 11.064 7.262 7.197 11.033 17.474 11.033 29.954 0 12.949-3.834 22.946-11.033 29.924s-17.57 10.245-30.741 10.245z" />
<glyph unicode="&#xe609;" d="M512 856.602c-225.298 0-408.602-183.305-408.602-408.602 0-225.327 183.305-408.602 408.602-408.602s408.602 183.273 408.602 408.602c0 225.298-183.305 408.602-408.602 408.602zM486.461 804.545v-78.577h51.075v78.577c79.364-5.659 151.496-37.213 208.23-86.437l-30.449-30.449 36.341-36.341 30.449 30.449c47.083-54.28 77.941-122.054 85.452-197.426h-76.614v-51.075h77.596c-3.488-83.448-35.109-159.849-86.437-219.036l-30.449 30.449-36.341-36.341 30.449-30.449c-56.734-49.221-128.835-80.776-208.23-86.437v76.614h-51.075v-76.614c-79.395 5.69-151.529 37.213-208.23 86.437l30.449 30.449-36.341 36.341-30.449-30.449c-51.327 59.218-82.916 135.585-86.437 219.036h79.559v51.075h-78.577c7.543 75.371 38.401 143.175 85.452 197.426l30.449-30.449 36.341 36.341-30.449 30.449c56.734 49.221 128.867 80.776 208.23 86.437zM292.964 576.672l-21.609-46.166 199.39-91.346c5.783-17.444 21.861-30.449 41.253-30.449 22.347 0 40.513 16.681 43.215 38.305l121.794 85.452-29.466 42.236-116.884-82.507c-5.659 2.671-11.966 4.913-18.662 4.913-9.713 0-18.276-3.465-25.539-8.839l-193.497 88.397z" />
<glyph unicode="&#xe60a;" d="M508.071 808.481c-34.385-0.377-69.652-5.878-104.13-16.689-137.857-43.313-231.708-163.001-249.497-297.618l-24.548-7.858c-21.531-6.758-32.406-34.699-23.575-62.862l58.932-186.637c8.831-28.162 33.475-46.045 55.005-39.288l25.553 7.858c91.622-100.234 236.359-144.486 374.218-101.177 137.886 43.313 231.676 163.001 249.497 297.618l24.548 7.858c21.562 6.758 32.406 34.666 23.575 62.862l-58.932 186.637c-8.831 28.194-33.504 46.045-55.005 39.288l-25.553-7.858c-68.675 75.182-166.931 118.998-270.085 117.866zM503.169 767.213c86.939 2.293 170.607-30.863 231.803-90.363l-102.151-32.406c-36.146 22.129-78.358 35.36-123.775 35.36-97.342 0-181.074-58.618-218.069-142.414l-93.287-29.483c21.593 111.705 102.087 209.141 218.069 245.57 28.98 9.114 58.43 12.981 87.409 13.735zM811.569 672.919c9.649 3.048 21.121-5.626 25.553-19.645l58.932-187.612c4.431-14.018-0.189-27.409-9.836-30.456l-673.818-212.159c-9.649-3.018-21.121 5.659-25.553 19.645l-58.932 187.612c-4.399 14.018 0.157 27.409 9.836 30.456l673.818 212.159zM509.046 639.541c23.889 0 46.518-4.965 67.764-12.761l-229.854-71.694c35.895 50.98 95.172 84.454 162.090 84.454zM777.212 634.605l-589.329-185.631c-13.64-4.306-20.461-19.329-15.715-34.385l41.268-133.582c4.715-15.055 19.739-23.949 33.411-19.645l589.329 185.631c13.64 4.274 20.429 19.329 15.715 34.385l-41.268 133.582c-4.748 15.055-19.801 23.949-33.411 19.645zM656.393 555.053l16.689-2.954-21.625-125.723-16.689 3.929 21.625 124.749zM616.13 542.293c10.78-0.817 18.794-9.241 23.575-24.548 6.348-20.242 1.319-32.939-15.715-38.316-17.19-5.408-28.98 2.358-35.36 22.599-6.411 20.398-1.477 32.876 15.715 38.316 4.243 1.319 8.171 2.232 11.786 1.949zM614.151 524.596c-1.256 0.251-2.514-0.534-3.929-0.975-5.752-1.823-7.921-7.134-4.903-16.689 2.954-9.4 8.017-13.611 13.767-11.786s6.883 8.297 3.929 17.696c-2.293 7.166-5.060 11.001-8.863 11.755zM538.528 519.694c20.682 2.514 37.025-10.027 47.146-42.243l2.954-10.812c11.598-36.963 2.422-57.958-22.599-65.816-26.935-8.486-45.826 4.715-56.984 40.263l-3.929 10.812c-11.157 35.549-3.365 57.362 23.575 65.816 3.111 1.006 6.883 1.634 9.836 1.981zM696.658 507.907c10.655-0.439 18.419-8.171 23.575-24.548 6.348-20.242 1.477-32.876-15.715-38.316-17.068-5.344-29.011 2.358-35.36 22.599s-1.319 32.939 15.715 38.316c4.118 1.288 8.236 2.107 11.786 1.949zM536.548 493.165c-9.587-3.018-11.786-12.541-4.903-34.385l1.981-7.858c6.883-21.813 14.994-28.539 24.548-25.553 9.4 2.954 11.786 12.541 4.903 34.385l-2.954 7.858c-6.852 21.875-14.176 28.508-23.575 25.553zM447.189 491.215c20.682 2.514 38.001-9.994 48.12-42.243l2.954-10.812c11.628-36.963 1.446-57.958-23.575-65.816-26.935-8.486-45.826 4.715-56.984 40.263l-2.954 10.812c-11.157 35.549-3.365 57.362 23.575 65.816 3.111 1.006 5.878 1.634 8.863 1.981zM694.708 490.243c-1.288 0.251-2.451-0.534-3.929-0.975-5.595-1.759-6.883-7.291-3.929-16.689s7.197-12.573 12.761-10.812c5.911 1.853 6.883 7.291 3.929 16.689-2.232 7.040-4.965 11.033-8.831 11.786zM372.542 466.669l35.36-113.937-25.553-7.858-24.548 77.603-20.62-30.456-9.836 32.406 23.575 35.36 21.625 6.883zM446.184 464.689c-9.587-3.018-12.761-12.541-5.911-34.385l2.954-7.858c6.852-21.813 14.018-28.539 23.575-25.553 9.4 2.954 11.786 12.541 4.903 34.385l-1.981 7.858c-6.822 21.875-14.143 28.508-23.542 25.553zM826.31 388.093c-21.625-111.737-102.087-209.141-218.069-245.57-115.947-36.429-237.649-2.703-319.213 76.628l84.486 26.528c38.534-26.78 85.177-42.243 135.561-42.243 102.18 0 189.151 64.685 222.97 155.207l94.261 29.452zM679.968 341.921c-34.385-58.776-98.033-98.222-170.921-98.222-29.766 0-58.146 6.852-83.481 18.669l254.402 79.552z" />
<glyph unicode="&#xe60b;" d="M712.747 873.229c-3.111 3.111-7.291 5.218-11.66 6.38-87.158 23.102-180.351-2.107-244.061-65.785-63.459-63.427-86.404-152.251-68.456-233.972l-285.423-285.423c-28.98-46.204-57.801-112.051 11.126-180.917s133.486-40.232 181.985-12.227l285.956 285.988c81.531-17.664 170.197 4.65 233.437 67.892 63.68 63.68 88.385 157.406 65.251 244.564-2.293 8.707-9.336 15.684-18.042 18.042s-17.506-0.534-23.889-6.883l-137.918-137.95-126.29 126.257 137.95 137.95c6.38 6.38 8.707 15.684 6.348 24.389-1.13 4.367-3.269 8.643-6.316 11.693v0zM581.685 590.475l10.624-10.624c3.898-3.898 3.898-9.901 0-13.767l-34.983-35.014c-3.929-3.898-9.901-3.898-13.798 0l-10.624 10.593c-3.866 3.898-3.866 9.901 0 13.798l35.014 35.014c3.866 3.898 9.901 3.898 13.767 0zM628.924 543.235l11.126-11.126c3.898-3.898 3.898-9.901 0-13.798l-35.014-35.014c-3.898-3.898-9.901-3.898-13.767 0l-11.126 11.126c-3.898 3.898-3.898 9.901 0 13.798l35.014 35.014c3.834 3.898 9.869 3.898 13.767 0v0zM533.437 637.686l11.126-11.126c3.929-3.898 3.929-9.901 0-13.767l-34.983-35.014c-3.898-3.898-10.434-4.431-14.332-0.534l-11.126 11.126c-3.898 3.898-3.365 10.434 0.534 14.332l35.014 35.014c3.834 3.866 9.869 3.866 13.767-0.032v0zM401.834 423.357l23.353-23.353c15.684-15.653 15.684-40.545 0-56.23l-146.435-146.406c-15.684-15.684-40.577-15.684-56.26 0l-23.353 23.323c-15.684 15.684-15.684 40.577 0 56.23l146.435 146.435c15.715 15.684 40.609 15.684 56.26 0z" />
<glyph unicode="&#xe60c;" d="M451.072 864l-0.832-161.888h160.224l-159.392 161.888zM156.512 862.336v-640.896h191.104c-19.328 35.776-30.88 76.64-30.88 120.16 0 140.096 113.6 253.696 253.728 253.696 13.696 0 26.944-1.248 40.032-3.328v83.424h-186.912v186.944h-267.072zM570.432 568.608c-125.376 0-227.008-101.632-227.008-227.008 0-125.344 101.632-226.976 227.008-226.976 42.304 0 82.048 11.52 115.968 31.68l115.168-114.304 65.952 65.088-112.672 112.672c26.72 37.248 42.56 82.528 42.56 131.872 0 125.344-101.632 226.976-226.976 226.976v0zM570.432 501.824c88.48 0 160.192-71.744 160.192-160.224s-71.712-160.224-160.192-160.224c-88.512 0-160.256 71.744-160.256 160.224s71.744 160.224 160.256 160.224zM570.432 475.136c-73.76 0-133.536-59.776-133.536-133.536 0-53.28 31.648-98.72 76.768-120.16h96.8v247.008c-12.736 4.064-25.952 6.688-40.032 6.688v0z" />
<glyph unicode="&#xe60d;" d="M114.811 516.225c0.215 0.171 0.56 0.259 0.905 0.516l255.57 226.263c42.537 37.71 111.365 37.71 153.901 0 42.494-37.624 42.494-98.565 0-136.189l-179.46-158.816 179.416-158.816c42.495-37.579 42.495-98.521 0-136.145-42.537-37.711-111.365-37.711-153.901 0l-255.571 226.221c-0.346 0.259-0.688 0.301-0.905 0.517-21.333 18.878-31.85 43.571-31.85 68.267s10.56 49.304 31.893 68.181v0z" horiz-adv-x="640" />
<glyph unicode="&#xe60e;" d="M525.189 516.225c-0.215 0.171-0.56 0.259-0.905 0.516l-255.57 226.263c-42.537 37.71-111.365 37.71-153.901 0-42.494-37.624-42.494-98.565 0-136.189l179.46-158.816-179.416-158.816c-42.495-37.579-42.495-98.521 0-136.145 42.537-37.711 111.365-37.711 153.901 0l255.571 226.221c0.346 0.259 0.688 0.301 0.905 0.517 21.333 18.878 31.85 43.571 31.85 68.267s-10.56 49.304-31.893 68.181v0z" horiz-adv-x="640" />
<glyph unicode="&#xe60f;" d="M580.225 242.811c0.171 0.215 0.259 0.56 0.516 0.905l226.263 255.57c37.71 42.537 37.71 111.365 0 153.901-37.624 42.494-98.565 42.494-136.189 0l-158.816-179.46-158.816 179.416c-37.579 42.495-98.521 42.495-136.145 0-37.711-42.537-37.711-111.365 0-153.901l226.221-255.571c0.259-0.346 0.301-0.688 0.517-0.905 18.878-21.333 43.571-31.85 68.267-31.85s49.304 10.56 68.181 31.893v0z" />
<glyph unicode="&#xe610;" d="M580.225 653.189c0.171-0.215 0.259-0.56 0.516-0.905l226.263-255.57c37.71-42.537 37.71-111.365 0-153.901-37.624-42.494-98.565-42.494-136.189 0l-158.816 179.46-158.816-179.416c-37.579-42.495-98.521-42.495-136.145 0-37.711 42.537-37.711 111.365 0 153.901l226.221 255.571c0.259 0.346 0.301 0.688 0.517 0.905 18.878 21.333 43.571 31.85 68.267 31.85s49.304-10.56 68.181-31.893v0z" />
<glyph unicode="&#xe611;" d="M512 894.865c-246.8 0-446.865-200.065-446.865-446.865s200.065-446.865 446.865-446.865c246.752 0 446.865 200.065 446.865 446.911 0 246.752-200.113 446.819-446.865 446.819zM504.972 187.374h-2.373c-36.401 1.070-62.096 27.929-61.024 63.817 1.024 35.284 27.324 60.932 62.514 60.932l2.141-0.093c37.426-1.070 62.841-27.65 61.769-64.562-1.070-35.377-26.905-60.094-63.027-60.094zM658.162 491.383c-8.566-12.103-27.371-27.277-51.11-45.757l-26.16-18.014c-14.337-11.172-22.995-21.738-26.207-32.026-2.606-8.1-3.817-10.286-4.049-26.811v-4.189h-99.846l0.279 8.472c1.256 34.633 2.094 55.114 16.478 72.010 22.576 26.44 72.383 58.558 74.478 59.907 7.169 5.353 13.173 11.451 17.643 18.014 10.473 14.476 15.082 25.835 15.082 36.913 0 15.547-4.562 29.931-13.639 42.638-8.752 12.382-25.369 18.526-49.387 18.526-23.832 0-40.171-7.541-49.899-23.087-10.054-15.872-15.128-32.584-15.128-49.667v-4.282h-102.918l0.187 4.468c2.653 62.98 25.182 108.365 66.797 134.851 26.207 16.803 58.838 25.323 96.866 25.323 49.714 0 91.793-12.103 124.843-35.935 33.56-24.16 50.551-60.373 50.551-107.573-0.046-26.393-8.379-51.203-24.857-73.779z" />
<glyph unicode="&#xe612;" d="M848.697 470.124q0-8.988-6.912-15.901l-322.165-322.165q-6.912-6.912-15.901-6.912t-15.901 6.912l-322.165 322.165q-6.912 6.912-6.912 15.901t6.912 15.901l34.566 34.566q6.912 6.912 15.901 6.912t15.901-6.912l271.695-271.695 271.695 271.695q6.912 6.912 15.901 6.912t15.901-6.912l34.566-34.566q6.912-6.912 6.912-15.901zM848.697 735.597q0-8.988-6.912-15.901l-322.165-322.165q-6.912-6.912-15.901-6.912t-15.901 6.912l-322.165 322.165q-6.912 6.912-6.912 15.901t6.912 15.901l34.566 34.566q6.912 6.912 15.901 6.912t15.901-6.912l271.695-271.695 271.695 271.695q6.912 6.912 15.901 6.912t15.901-6.912l34.566-34.566q6.912-6.912 6.912-15.901z" />
<glyph unicode="&#xe613;" d="M374.428 279.121l-170.167 187.518-69.431-76.535 239.596-263.957 514.744 567.235-69.431 76.504-445.312-490.761z" />
<glyph unicode="&#xe614;" d="M885.21 247.438c-20.461 31.934-71.913 51.862-131.538 74.995-15.871 6.162-32.28 12.51-48.686 19.361-46.77 19.518-70.91 30.929-81.94 36.459l-0.534 54.345c9.492 10.466 26.182 34.542 34.355 80.245 22.787 7.889 37.939 39.070 39.007 57.111 0.126 1.823 2.39 44.352-15.936 63.773-1.853 1.981-3.866 3.677-6.035 5.092 0.346 2.766 0.661 5.28 0.943 7.858l3.585 54.501c-0.094 1.823-0.221 3.521-0.346 5.092-3.018 30.929-18.953 62.265-44.821 86.844l-23.102 18.231c-1.162 0.754-2.358 1.414-3.521 2.138-24.643 25.019-56.671 43.125-94.637 43.125-37.751 0-69.716-17.82-94.293-42.652-3.834-2.325-7.511-4.777-11.064-7.388l1.665-2.734-22.003-14.899c-23.323-23.889-37.592-53.495-40.419-82.693-0.157-1.572-0.251-3.269-0.315-5.060l3.553-54.501c0.283-2.578 0.596-5.123 0.943-7.858-2.17-1.384-4.213-3.111-6.129-5.153-18.354-19.549-15.841-63.333-15.811-63.711 1.098-18.042 16.219-49.221 39.007-57.111 8.14-45.701 24.861-69.774 34.355-80.245l-0.534-54.312c-11.095-5.562-35.203-17.003-82.004-36.491-16.408-6.852-32.844-13.233-48.75-19.393-59.56-23.102-110.951-43.060-131.444-74.931-21.845-34.102-17.759-165.736-16.721-191.825l0.661-16.251h778.575l0.661 16.251c1.038 26.056 5.153 157.722-16.721 191.793v0zM517.53 120.363l-114.628 221.243c16.627 7.795 22.662 11.348 23.666 11.975l8.017 4.903 0.787 80.964-0.189 8.236-6.162 5.153c-0.251 0.189-22.914 19.707-30.424 77.791l-1.288 19.645-18.983-5.469c-5.186 1.319-15.871 17.759-16.438 27.219-0.881 14.176 2.293 31.4 5.721 37.154l21.028-4.338-3.111 23.606c-0.724 5.659-1.541 11.881-2.325 18.263h257.576c-0.724-6.191-1.541-12.384-2.293-18.296l-3.585-23.633 21.437 4.463c3.426-5.69 6.631-23.008 5.813-37.245-0.567-9.147-10.687-24.955-15.998-27.031l-18.199 5.249-2.514-19.581c-7.48-58.055-30.173-77.571-30.173-77.571l-6.695-5.153 0.787-89.422 8.047-4.903c0.849-0.503 5.060-3.018 15.811-8.236l-95.675-224.983z" />
<glyph unicode="&#xe615;" d="M438.861 141.046c24.233-10.498 47.146-15.715 68.772-15.715 123.116 0 184.658 54.816 184.658 164.478 0 37.34-6.695 66.791-20.146 88.385-8.831 14.428-18.921 26.56-30.204 36.333-11.285 9.836-22.347 17.444-33.161 22.882-10.842 5.408-24.012 9.523-39.572 12.289s-29.324 4.494-41.268 5.153c-11.944 0.661-27.409 1.006-46.425 0.975-23.889 0-40.451-1.634-49.597-4.903 0-17.35-0.094-43.373-0.251-78.044-0.157-34.699-0.251-60.599-0.251-77.603 0-2.639-0.157-13.703-0.503-33.191s-0.409-35.265-0.251-47.398 0.913-25.772 2.203-41.049c1.319-15.213 3.269-26.088 5.878-32.659l0.126 0.065zM432.006 507.435c13.735-2.293 31.586-3.426 53.527-3.426 26.843 0 50.227 2.107 70.217 6.38s37.969 11.537 54.031 21.845c16.061 10.309 28.256 24.955 36.584 43.941 8.36 18.983 12.477 42.243 12.477 69.745 0 22.914-4.715 42.998-14.207 60.158-9.492 17.19-22.442 30.615-38.787 40.263-16.376 9.649-34.041 16.785-53.024 21.373s-39.288 6.883-60.911 6.883c-16.376 0-37.622-2.138-63.837-6.38 0-16.376 0.661-41.081 1.981-74.147s1.981-57.958 1.981-74.649c0-8.831-0.094-21.939-0.251-39.288s-0.251-30.268-0.251-38.787c0-15.055 0.157-26.37 0.503-33.884l-0.032-0.032zM166.29 70.83l0.975 46.173c4.903 1.319 18.826 3.929 41.74 7.858s40.263 8.36 52.050 13.266c2.293 3.929 4.338 8.36 6.129 13.266 1.823 4.934 3.205 10.434 4.182 16.438s1.886 11.348 2.703 15.967c0.817 4.589 1.319 10.749 1.477 18.419s0.251 13.266 0.251 16.689v32.155c0 321.506-3.585 489.284-10.812 503.397-1.319 2.61-4.934 4.998-10.812 7.134s-13.17 3.929-21.845 5.408c-8.674 1.477-16.785 2.61-24.297 3.426s-15.462 1.541-23.825 2.203c-8.36 0.661-13.358 1.13-14.994 1.477l-1.981 40.766c32.092 0.661 87.756 2.547 166.991 5.659 79.271 3.111 140.341 4.65 183.178 4.65 7.511 0 18.732-0.065 33.633-0.251 14.931-0.157 25.963-0.251 33.161-0.251 22.946 0 45.292-2.107 67.073-6.38 21.751-4.274 42.808-11.126 63.113-20.62s37.969-21.121 53.024-34.854c15.055-13.767 27.156-30.863 36.333-51.327s13.767-42.968 13.767-67.513c0-17.003-2.734-32.659-8.14-46.893-5.408-14.269-11.786-26.056-19.111-35.36-7.324-9.336-17.885-18.732-31.682-28.225-13.767-9.492-25.71-16.879-35.895-22.097-10.121-5.249-23.889-11.786-41.268-19.645 50.415-11.471 92.374-33.411 125.976-65.816s50.354-73.014 50.354-121.794c0-32.749-5.721-62.171-17.19-88.165-11.442-26.023-26.78-47.398-45.921-64.089s-41.74-30.708-67.764-41.993-52.804-19.234-80.305-23.857c-27.501-4.589-56.324-6.883-86.437-6.883-14.428 0-36.018 0.503-64.843 1.477s-50.415 1.477-64.843 1.477c-34.699 0-84.958-1.792-150.774-5.408-65.816-3.585-103.627-5.562-113.434-5.878h0.065z" />
<glyph unicode="&#xe616;" d="M793.526 833.028l6.945-55.005h-110.007l-191.884-660.051h110.007l6.945-55.005h-385.028l-6.914 55.005h110.007l191.884 660.051h-110.007l-6.914 55.005h384.965z" />
<glyph unicode="&#xe617;" d="M222.122 705.368c-106.937 0-193.028-86.089-193.028-193.028v-64.344c0-106.937 86.089-193.028 193.028-193.028h128.684c83.989 0 154.301 54.083 180.961 128.684h-70.372c-22.216-38.406-62.852-64.344-110.584-64.344h-128.684c-71.292 0-128.684 57.391-128.684 128.684v64.344c0 71.292 57.391 128.684 128.684 128.684h128.684c47.736 0 88.373-25.938 110.584-64.344h70.372c-26.659 74.605-96.971 128.684-180.961 128.684h-128.684zM801.194 705.368c-83.989 0-154.301-54.083-180.961-128.684h70.372c22.216 38.406 62.852 64.344 110.584 64.344h128.684c71.292 0 128.684-57.391 128.684-128.684v-64.344c0-71.292-57.391-128.684-128.684-128.684h-128.684c-47.736 0-88.373 25.938-110.584 64.344h-70.372c26.659-74.605 96.971-128.684 180.961-128.684h128.684c106.937 0 193.028 86.089 193.028 193.028v64.344c0 106.937-86.089 193.028-193.028 193.028h-128.684zM318.632 512.344c-17.826 0-32.17-14.347-32.17-32.17s14.347-32.17 32.17-32.17h514.73c17.826 0 32.17 14.347 32.17 32.17s-14.347 32.17-32.17 32.17h-514.73z" horiz-adv-x="1152" />
<glyph unicode="&#xe618;" d="M576.396 125.841c0 33.898-26.966 61.308-60.343 63.56 0 0 0 0.643 0 0.898h60.029c35.313 0 64.198 28.952 64.198 64.198 0 35.371-28.89 64.198-64.198 64.198h64.198c35.313 0 64.198 28.952 64.198 64.198 0 35.371-28.89 64.198-64.198 64.198h257.51c35.313 0 64.198 28.89 64.198 64.198s-28.89 64.198-64.198 64.198h-432.837c-20.867 0-28.89 21.379-9.947 35.694 62.53 47.639 129.816 44.945 122.88 112.674-4.948 48.274-46.803 48.218-66.321 39.157l-434.054-201.717c-10.081-5.65-16.562-16.497-16.562-28.252 0-56.3 0-255.071 0-376.089 0-53.226 43.268-96.303 96.303-96.303 172.569 0 354.068 0 354.068 0 36.016 0.836 64.903 29.854 64.903 65.161v0h0.192z" />
<glyph unicode="&#xe619;" d="M263.382 793.269c-88.288 0-159.982-72.48-159.982-160.771v-256.099c0-76.504 55.066-137.918 126.885-153.698v-94.577c-0.126-13.924 11.064-25.333 24.987-25.461 4.494-0.032 8.927 1.13 12.823 3.365l191.478 109.537h301.047c88.288 0 159.982 72.511 159.982 160.771v256.099c0 88.288-71.694 160.771-159.982 160.771h-497.239zM263.382 742.853h497.239c61.007 0 109.537-49.282 109.537-110.323v-256.099c0-61.007-48.529-110.353-109.537-110.353h-306.545c-4.399 0.065-8.739-1.006-12.605-3.173l-160.771-92.22v70.938c0.032 13.358-10.341 24.389-23.633 25.208-57.926 3.488-103.251 50.793-103.251 109.568v256.099c0 61.038 48.529 110.353 109.568 110.353zM514.766 679.803c-39.635 0-77.321-10.121-112.68-29.954l25.991-51.988c30.456 15.558 57.393 23.633 81.186 23.633 13.64 0 24.673-3.269 32.313-8.674 7.605-5.408 11.033-12.605 11.033-22.85 0-9.179-2.578-17.696-7.858-25.208-5.344-7.42-16.438-17.288-33.129-29.169-17.288-12.699-28.917-24.202-35.454-35.454-6.506-11.254-9.46-24.955-9.46-40.169v-17.35h63.050v14.176c0 9.523 1.446 17.035 5.53 22.85 4.024 5.846 13.892 14.742 29.169 26.023 22.159 15.841 36.963 29.859 44.915 42.557 7.889 12.636 12.605 27.47 12.605 44.915 0 26.182-9.932 47.366-29.169 63.050-19.329 15.684-45.385 23.606-78.044 23.606zM500.558 401.608c-13.64 0-23.575-3.426-30.741-10.245-7.134-6.852-11.033-16.595-11.033-29.924 0-12.823 3.772-22.882 11.033-29.954 7.291-7.073 17.413-11.064 30.741-11.064 13.014 0 23.448 3.834 30.741 11.064 7.262 7.197 11.033 17.474 11.033 29.954 0 12.949-3.834 22.946-11.033 29.924s-17.57 10.245-30.741 10.245z" />
<glyph unicode="&#xe61a;" d="M512 930.008c-199.426 0-361.5-161.951-361.5-361.5 0-241.001 361.5-602.508 361.5-602.508s361.5 361.5 361.5 602.508c0 199.426-162.075 361.5-361.5 361.5zM512 327.5c-133.156 0-241.001 107.847-241.001 241.001s107.847 241.001 241.001 241.001 241.001-107.847 241.001-241.001-107.847-241.001-241.001-241.001z" />
</font>
</defs>
</svg>
